<?xml version="1.0" standalone="no"?>
<!DOCTYPE svg PUBLIC "-//W3C//DTD SVG 20010904//EN"
 "http://www.w3.org/TR/2001/REC-SVG-20010904/DTD/svg10.dtd">
<svg version="1.0" xmlns="http://www.w3.org/2000/svg"
 width="512.000000pt" height="512.000000pt" viewBox="0 0 512.000000 512.000000"
 preserveAspectRatio="xMidYMid meet">

<g transform="translate(0.000000,512.000000) scale(0.100000,-0.100000)"
fill="#000000" stroke="none">
<path d="M2361 3891 c-24 -9 -46 -21 -48 -28 -3 -7 23 -24 59 -41 77 -35 122
-84 143 -156 29 -98 58 -97 90 2 23 73 67 119 143 153 79 36 78 50 -5 77 -31
10 -48 0 -20 -11 6 -3 -66 -6 -162 -6 -153 -1 -172 1 -161 14 7 8 11 15 9 14
-2 -1 -24 -8 -48 -18z"/>
<path d="M2026 3804 c-20 -20 -20 -38 0 -59 35 -34 91 6 73 53 -10 26 -50 30
-73 6z"/>
<path d="M3020 3801 c-20 -39 22 -82 60 -61 28 15 26 42 -2 38 -17 -2 -24 3
-26 20 -4 27 -18 28 -32 3z"/>
<path d="M2245 3245 c-154 -14 -171 -17 -295 -47 -288 -69 -460 -255 -521
-563 -9 -45 -14 -134 -13 -250 0 -210 18 -302 86 -445 34 -71 55 -99 129 -172
76 -75 104 -95 192 -137 108 -52 173 -77 247 -92 208 -42 213 -43 495 -43 252
0 291 2 390 22 151 31 222 55 345 114 91 44 117 62 191 137 70 70 94 102 127
171 71 146 86 224 86 450 1 205 -9 276 -55 392 -46 120 -74 164 -148 238 -114
114 -215 160 -446 205 -16 3 -102 12 -190 20 -190 17 -427 17 -620 0z m-197
-582 l35 -38 -6 -168 c-5 -121 -11 -174 -21 -189 -13 -18 -14 -18 -18 -2 -3
15 -12 18 -55 15 -30 -1 -54 2 -58 9 -5 8 -11 5 -20 -7 -12 -17 -14 -16 -21
11 -3 15 -7 100 -8 188 l-1 159 33 30 c48 43 94 40 140 -8z m1142 -13 c37 -37
27 -53 -104 -166 l-59 -50 82 -65 c82 -65 103 -97 81 -124 -25 -30 -60 -16
-175 72 -162 122 -162 120 68 306 65 53 78 56 107 27z m-791 -642 c60 -30 73
-33 161 -33 86 0 101 3 164 33 75 35 96 38 114 20 34 -34 -11 -94 -106 -140
-62 -30 -75 -32 -167 -32 -117 0 -185 22 -253 80 -43 36 -53 69 -30 92 19 19
46 14 117 -20z"/>
<path d="M1155 2761 c-80 -37 -82 -42 -89 -208 -4 -81 -9 -158 -12 -171 -6
-29 -24 -19 -24 13 0 47 -17 34 -24 -18 -17 -145 -3 -230 53 -303 47 -62 96
-96 136 -92 29 3 30 5 27 48 -2 25 -7 70 -12 100 -18 110 -22 303 -9 430 16
154 17 212 4 216 -5 2 -28 -5 -50 -15z"/>
<path d="M3903 2763 c-4 -9 0 -59 8 -112 17 -115 18 -407 1 -506 -20 -121 -20
-159 1 -163 33 -7 67 8 108 45 64 58 99 137 99 229 0 91 -13 206 -21 192 -5
-7 -9 -26 -9 -41 0 -18 -4 -27 -12 -25 -12 4 -23 115 -27 266 -1 44 -6 57 -30
79 -15 14 -47 32 -70 39 -37 11 -43 10 -48 -3z"/>
</g>
</svg>
